<svg width="23" height="23" viewBox="0 0 23 23" fill="none" xmlns="http://www.w3.org/2000/svg">
<path fill-rule="evenodd" clip-rule="evenodd" d="M7.44385 0.964355H15.6938C19.4902 0.964355 22.5688 4.04298 22.5688 7.83936V16.0894C22.5688 19.8857 19.4902 22.9644 15.6938 22.9644H7.44385C3.64747 22.9644 0.568848 19.8857 0.568848 16.0894V7.83936C0.568848 4.04298 3.64747 0.964355 7.44385 0.964355ZM15.6938 20.9019C18.3476 20.9019 20.5063 18.7431 20.5063 16.0894V7.83936C20.5063 5.18561 18.3476 3.02686 15.6938 3.02686H7.44385C4.7901 3.02686 2.63135 5.18561 2.63135 7.83936V16.0894C2.63135 18.7431 4.7901 20.9019 7.44385 20.9019H15.6938Z" fill="white"/>
<path fill-rule="evenodd" clip-rule="evenodd" d="M6.06885 11.9644C6.06885 8.92698 8.53147 6.46436 11.5688 6.46436C14.6062 6.46436 17.0688 8.92698 17.0688 11.9644C17.0688 15.0017 14.6062 17.4644 11.5688 17.4644C8.53147 17.4644 6.06885 15.0017 6.06885 11.9644ZM8.13135 11.9644C8.13135 13.8591 9.6741 15.4019 11.5688 15.4019C13.4636 15.4019 15.0063 13.8591 15.0063 11.9644C15.0063 10.0682 13.4636 8.52686 11.5688 8.52686C9.6741 8.52686 8.13135 10.0682 8.13135 11.9644Z" fill="white"/>
<circle cx="17.4814" cy="6.05172" r="0.732875" fill="white"/>
</svg>
