<svg width="18" height="19" viewBox="0 0 18 19" fill="none" xmlns="http://www.w3.org/2000/svg">
<path d="M3.99951 2.96436C3.99951 4.02636 3.28951 4.94036 1.99851 4.94036C0.783512 4.94036 -0.000488281 4.07836 -0.000488281 3.01636C-0.000488281 1.92636 0.759512 0.964355 1.99951 0.964355C3.23951 0.964355 3.97551 1.87436 3.99951 2.96436ZM-0.000488281 18.9644V5.96436H3.99951V18.9644H-0.000488281Z" fill="white"/>
<path d="M5.99995 10.4082C5.99995 8.86318 5.94895 7.57218 5.89795 6.45718H9.49195L9.66995 8.18018H9.74595C10.2519 7.36918 11.4919 6.18018 13.5679 6.18018C16.0999 6.18018 17.9999 7.87518 17.9999 11.5222V18.9642H13.9999V12.1032C13.9999 10.5092 13.3929 9.29318 11.9999 9.29318C10.9379 9.29318 10.4059 10.1532 10.1269 10.8622C10.0249 11.1162 9.99995 11.4702 9.99995 11.8252V18.9642H5.99995V10.4082Z" fill="white"/>
</svg>
