<svg width="315" height="436" viewBox="0 0 315 436" fill="none" xmlns="http://www.w3.org/2000/svg">
<path d="M162.066 2.64794L25.3428 139.36C24.09 140.628 23.2394 142.238 22.8975 143.988C22.5557 145.738 22.7379 147.55 23.4212 149.196C24.1045 150.843 25.2586 152.251 26.7388 153.245C28.2191 154.239 29.9596 154.773 31.7424 154.782H76.5632C77.7524 154.783 78.93 154.548 80.0283 154.092C81.1266 153.636 82.1239 152.967 82.9628 152.124L162.066 73.0206C162.908 72.1775 163.907 71.5086 165.007 71.0523C166.107 70.5959 167.287 70.361 168.478 70.361C169.669 70.361 170.848 70.5959 171.948 71.0523C173.048 71.5086 174.048 72.1775 174.889 73.0206L253.993 152.124C255.69 153.822 257.991 154.778 260.392 154.782L305.225 154.782C307.005 154.766 308.74 154.227 310.215 153.231C311.69 152.234 312.839 150.826 313.518 149.18C314.197 147.535 314.376 145.726 314.033 143.98C313.69 142.233 312.84 140.626 311.589 139.36L174.866 2.64794C173.168 0.952351 170.866 0 168.466 0C166.066 0 163.765 0.952351 162.066 2.64794Z" fill="#FFEFC2"/>
<path d="M139.442 4.90917L2.68318 141.621C1.40498 142.887 0.532826 144.506 0.177945 146.269C-0.176935 148.033 0.00153281 149.863 0.690593 151.525C1.37965 153.187 2.54809 154.606 4.04689 155.601C5.5457 156.597 7.30698 157.123 9.10613 157.113H53.9735C55.1625 157.113 56.3398 156.877 57.4379 156.421C58.536 155.965 59.5334 155.297 60.3731 154.455L139.477 75.3634C140.317 74.5175 141.315 73.8462 142.416 73.3881C143.516 72.9299 144.696 72.6941 145.888 72.6941C147.08 72.6941 148.26 72.9299 149.36 73.3881C150.461 73.8462 151.46 74.5175 152.299 75.3634L231.403 154.455C232.242 155.298 233.239 155.967 234.338 156.423C235.436 156.879 236.613 157.114 237.803 157.113L282.565 157.113C284.355 157.111 286.104 156.579 287.592 155.584C289.08 154.588 290.239 153.174 290.924 151.521C291.609 149.867 291.788 148.047 291.439 146.291C291.091 144.536 290.229 142.923 288.965 141.656L152.241 4.90917C150.543 3.21358 148.241 2.26123 145.841 2.26123C143.442 2.26123 141.14 3.21358 139.442 4.90917Z" fill="#FDD756"/>
<path d="M53.7637 119.731C59.3576 111.663 65.4178 103.929 71.9134 96.5683C78.3247 89.2245 84.9769 82.1099 91.87 75.2245C98.7631 68.3392 105.878 61.6831 113.214 55.2563C120.57 48.7582 128.304 42.7015 136.376 37.1182C130.799 45.1989 124.742 52.9375 118.238 60.2921C111.827 67.6514 105.171 74.7621 98.2697 81.6242C91.3688 88.4862 84.2542 95.1423 76.9259 101.592C69.5672 108.087 61.8331 114.144 53.7637 119.731Z" fill="#FED960"/>
<path d="M162.069 141.843L25.3452 278.555C24.0787 279.82 23.2161 281.433 22.8666 283.188C22.517 284.944 22.6961 286.764 23.3813 288.417C24.0665 290.071 25.227 291.484 26.7158 292.478C28.2045 293.472 29.9547 294.002 31.7448 294.001H76.5655C77.754 294.003 78.9314 293.771 80.0297 293.317C81.128 292.863 82.1257 292.196 82.9652 291.355L162.069 212.251C162.91 211.408 163.909 210.739 165.01 210.283C166.11 209.826 167.289 209.591 168.48 209.591C169.671 209.591 170.851 209.826 171.951 210.283C173.051 210.739 174.05 211.408 174.891 212.251L253.995 291.355C255.694 293.049 257.995 294.001 260.395 294.001L305.227 294.001C307.014 293.995 308.76 293.46 310.243 292.464C311.726 291.467 312.881 290.054 313.562 288.401C314.243 286.749 314.419 284.932 314.069 283.18C313.718 281.427 312.856 279.818 311.592 278.555L174.868 141.843C173.17 140.148 170.868 139.195 168.468 139.195C166.069 139.195 163.767 140.148 162.069 141.843Z" fill="#FFEFC2"/>
<path d="M139.442 144.104L2.6831 280.816C1.41838 282.083 0.557329 283.696 0.208659 285.452C-0.140011 287.207 0.0393403 289.027 0.724064 290.681C1.40879 292.335 2.56818 293.749 4.05585 294.744C5.54353 295.739 7.29278 296.272 9.08273 296.274H53.9734C55.1625 296.273 56.3397 296.038 57.4378 295.582C58.5359 295.126 59.5334 294.458 60.3731 293.616L139.477 214.512C140.318 213.669 141.317 213 142.417 212.544C143.518 212.087 144.697 211.853 145.888 211.853C147.079 211.853 148.258 212.087 149.359 212.544C150.459 213 151.458 213.669 152.299 214.512L231.403 293.616C232.242 294.459 233.239 295.127 234.337 295.584C235.436 296.04 236.613 296.274 237.803 296.274L282.565 296.274C284.355 296.272 286.104 295.739 287.592 294.744C289.08 293.749 290.239 292.335 290.924 290.681C291.608 289.027 291.788 287.207 291.439 285.452C291.09 283.696 290.229 282.083 288.965 280.816L152.241 144.104C150.543 142.409 148.241 141.457 145.841 141.457C143.442 141.457 141.14 142.409 139.442 144.104Z" fill="#FDD756"/>
<path d="M53.7637 258.925C59.3576 250.858 65.4178 243.124 71.9134 235.763C78.3247 228.404 84.9769 221.289 91.87 214.419C98.7631 207.549 105.878 200.882 113.214 194.416C120.57 187.918 128.304 181.861 136.376 176.278C130.799 184.359 124.742 192.097 118.238 199.452C111.827 206.811 105.171 213.922 98.2697 220.784C91.3688 227.646 84.2542 234.298 76.9259 240.74C69.5713 247.254 61.8369 253.327 53.7637 258.925Z" fill="#FED960"/>
<path d="M162.068 281.037L25.3442 417.738C24.0737 419.002 23.2076 420.616 22.8557 422.373C22.5038 424.131 22.682 425.953 23.3677 427.609C24.0534 429.266 25.2156 430.681 26.7069 431.675C28.1982 432.67 29.9513 433.199 31.7438 433.195H76.5645C78.964 433.195 81.2657 432.244 82.9642 430.549L162.068 351.445C162.909 350.602 163.908 349.933 165.009 349.477C166.109 349.02 167.288 348.786 168.479 348.786C169.67 348.786 170.85 349.02 171.95 349.477C173.05 349.933 174.049 350.602 174.89 351.445L253.994 430.549C255.695 432.239 257.995 433.19 260.394 433.195L305.226 433.195C307.013 433.186 308.757 432.649 310.24 431.651C311.722 430.653 312.876 429.239 313.557 427.586C314.237 425.934 314.413 424.117 314.064 422.365C313.714 420.612 312.853 419.002 311.591 417.738L174.867 281.037C174.028 280.195 173.03 279.527 171.932 279.071C170.834 278.615 169.657 278.38 168.467 278.38C167.278 278.38 166.101 278.615 165.003 279.071C163.904 279.527 162.907 280.195 162.068 281.037Z" fill="#FFEFC2"/>
<path d="M139.442 283.3L2.68305 420.012C1.41663 421.277 0.554036 422.889 0.204453 424.645C-0.14513 426.4 0.0340184 428.22 0.719218 429.874C1.40442 431.528 2.56486 432.941 4.05365 433.935C5.54244 434.929 7.29263 435.458 9.08268 435.457H53.9734C55.1617 435.459 56.3386 435.226 57.4368 434.772C58.535 434.318 59.5327 433.651 60.373 432.811L139.477 353.707C140.318 352.864 141.317 352.195 142.417 351.739C143.518 351.283 144.697 351.048 145.888 351.048C147.079 351.048 148.258 351.283 149.358 351.739C150.459 352.195 151.458 352.864 152.299 353.707L231.403 432.811C232.242 433.652 233.24 434.319 234.338 434.773C235.437 435.227 236.614 435.46 237.803 435.457L282.565 435.457C284.355 435.458 286.105 434.929 287.594 433.935C289.083 432.941 290.243 431.528 290.928 429.874C291.614 428.22 291.793 426.4 291.443 424.645C291.094 422.889 290.231 421.277 288.965 420.012L152.241 283.3C151.402 282.457 150.404 281.789 149.306 281.333C148.208 280.877 147.03 280.642 145.841 280.642C144.652 280.642 143.475 280.877 142.377 281.333C141.278 281.789 140.281 282.457 139.442 283.3Z" fill="#FDD756"/>
<path d="M53.7637 398.12C59.3547 390.05 65.4151 382.316 71.9134 374.957C78.3247 367.598 84.9769 360.483 91.87 353.614C98.7631 346.744 105.878 340.088 113.214 333.645C120.57 327.147 128.304 321.091 136.376 315.507C130.799 323.588 124.742 331.327 118.238 338.681C111.827 346.025 105.171 353.136 98.2697 360.013C91.3688 366.891 84.2542 373.543 76.9259 379.97C69.5703 386.472 61.836 392.532 53.7637 398.12Z" fill="#FED960"/>
</svg>
