<svg width="18" height="21" viewBox="0 0 18 21" fill="none" xmlns="http://www.w3.org/2000/svg">
<path d="M16.9598 5.65729C15.9629 5.43808 15.0612 4.90872 14.3838 4.14518C13.7065 3.38163 13.2885 2.42316 13.1898 1.40729V0.967285H9.73977V14.6373C9.74047 15.2438 9.55031 15.8353 9.19621 16.3277C8.84212 16.8202 8.34205 17.1888 7.76684 17.3813C7.19162 17.5737 6.57043 17.5803 5.99125 17.4002C5.41207 17.22 4.90427 16.8621 4.53977 16.3773C4.21322 15.9481 4.01326 15.4362 3.9625 14.8993C3.91175 14.3624 4.01222 13.822 4.25255 13.3393C4.49289 12.8565 4.8635 12.4506 5.32249 12.1675C5.78147 11.8844 6.31051 11.7354 6.84977 11.7373C7.14801 11.7356 7.44477 11.7794 7.72977 11.8673V8.36728C7.39811 8.32621 7.06388 8.3095 6.72977 8.31729C5.49908 8.35017 4.30469 8.74122 3.29286 9.44255C2.28102 10.1439 1.49566 11.1251 1.03295 12.2659C0.570236 13.4068 0.450252 14.6578 0.687691 15.8658C0.925129 17.0739 1.50968 18.1864 2.36977 19.0673C3.25126 19.9635 4.37927 20.5774 5.61047 20.8311C6.84167 21.0847 8.12049 20.9667 9.28443 20.4919C10.4484 20.0171 11.4449 19.207 12.1474 18.1645C12.8499 17.1221 13.2266 15.8943 13.2298 14.6373V7.63729C14.6212 8.63123 16.2898 9.16293 17.9998 9.15728V5.75729C17.6639 5.75867 17.3287 5.72516 16.9998 5.65729H16.9598Z" fill="white"/>
</svg>
