<svg width="23" height="18" viewBox="0 0 23 18" fill="none" xmlns="http://www.w3.org/2000/svg">
<path d="M22.5688 2.14298C21.7507 2.50186 20.879 2.73973 19.9701 2.85523C20.9051 2.29698 21.6187 1.41973 21.9542 0.362355C21.0825 0.882105 20.12 1.24923 19.0942 1.45411C18.2665 0.57273 17.0867 0.0268555 15.7997 0.0268555C13.3027 0.0268555 11.2925 2.05361 11.2925 4.53823C11.2925 4.89573 11.3227 5.23948 11.397 5.56673C7.64735 5.38386 4.32947 3.58673 2.1006 0.849105C1.71147 1.52423 1.48322 2.29698 1.48322 3.12886C1.48322 4.69086 2.2876 6.07548 3.4866 6.87711C2.76197 6.86336 2.0511 6.65298 1.44885 6.32161C1.44885 6.33536 1.44885 6.35323 1.44885 6.37111C1.44885 8.56286 3.01222 10.3834 5.06235 10.8027C4.69522 10.9031 4.2951 10.9512 3.87985 10.9512C3.5911 10.9512 3.2996 10.9347 3.02597 10.8742C3.61035 12.6604 5.2686 13.9735 7.24035 14.0161C5.70585 15.2165 3.75747 15.9397 1.64822 15.9397C1.27835 15.9397 0.923598 15.9232 0.568848 15.8779C2.56672 17.1662 4.93447 17.9019 7.48785 17.9019C15.7873 17.9019 20.3248 11.0269 20.3248 5.06761C20.3248 4.86823 20.318 4.67573 20.3083 4.48461C21.2035 3.84936 21.9556 3.05598 22.5688 2.14298Z" fill="white"/>
</svg>
